<svg xmlns="http://www.w3.org/2000/svg" viewBox="0 0 100 100">
  <rect width="100" height="100" rx="18" fill="white"/>
  <!-- Microphone body -->
  <path d="M28 28 C28 20, 34 14, 42 14 C50 14, 56 20, 56 28 L56 48 C56 56, 50 62, 42 62 C34 62, 28 56, 28 48 Z" fill="black"/>
  <!-- Microphone lines -->
  <rect x="32" y="24" width="14" height="3" rx="1.5" fill="white"/>
  <rect x="32" y="32" width="14" height="3" rx="1.5" fill="white"/>
  <rect x="32" y="40" width="14" height="3" rx="1.5" fill="white"/>
  <!-- Microphone stand curve -->
  <path d="M22 52 C22 68, 34 76, 42 76 C50 76, 62 68, 62 52" stroke="black" stroke-width="5" fill="none" stroke-linecap="round"/>
  <!-- Microphone stand vertical -->
  <rect x="39" y="76" width="6" height="8" fill="black"/>
  <!-- Microphone stand base -->
  <rect x="32" y="84" width="20" height="5" rx="2.5" fill="black"/>
  <!-- Speech bubble -->
  <ellipse cx="72" cy="42" rx="18" ry="14" fill="black"/>
  <path d="M58 52 L52 62 L62 54" fill="black"/>
  <!-- Speech bubble lines -->
  <rect x="62" y="38" width="20" height="3" rx="1.5" fill="white"/>
  <rect x="62" y="45" width="14" height="3" rx="1.5" fill="white"/>
</svg>
