<svg xmlns="http://www.w3.org/2000/svg" viewBox="0 0 100 100">
  <defs>
    <linearGradient id="grad" x1="0%" y1="0%" x2="100%" y2="100%">
      <stop offset="0%" style="stop-color:#8B5CF6;stop-opacity:1" />
      <stop offset="100%" style="stop-color:#EC4899;stop-opacity:1" />
    </linearGradient>
  </defs>
  <rect width="100" height="100" rx="22" fill="url(#grad)"/>
  <path d="M50 20c-16.569 0-30 13.431-30 30 0 12.81 8.024 23.726 19.32 28.014.228-2.252.73-4.445 1.504-6.538C35.026 68.894 30 60.073 30 50c0-11.046 8.954-20 20-20s20 8.954 20 20c0 10.073-5.026 18.894-12.824 21.476.774 2.093 1.276 4.286 1.504 6.538C70.976 73.726 79 62.81 79 50c0-16.569-13.431-30-30-30z" fill="white"/>
  <circle cx="50" cy="50" r="10" fill="white"/>
  <path d="M50 65c-2.761 0-5 2.239-5 5v10c0 2.761 2.239 5 5 5s5-2.239 5-5V70c0-2.761-2.239-5-5-5z" fill="white"/>
</svg>
